<?xml version="1.0" encoding="UTF-8"?>
<svg version="1.1" xmlns="http://www.w3.org/2000/svg" width="236" height="236">
<path d="M0 0 C3.9643906 1.60112801 6.64718353 4.35766232 9.60546875 7.33984375 C10.39247917 8.12398399 10.39247917 8.12398399 11.19538879 8.92396545 C12.29963009 10.02684942 13.40136437 11.1322485 14.50073242 12.23999023 C16.18515692 13.935142 17.88000513 15.61934108 19.57617188 17.30273438 C20.64907954 18.3769633 21.72136683 19.45181227 22.79296875 20.52734375 C23.30022995 21.03055649 23.80749115 21.53376923 24.3301239 22.05223083 C26.61575092 24.36867917 27.95509183 25.8652755 29 29 C27.58653438 30.44064765 26.16908789 31.87739015 24.75 33.3125 C23.96109375 34.11300781 23.1721875 34.91351563 22.359375 35.73828125 C20.32605933 37.68743651 18.29398922 39.37421406 16 41 C17.41567599 44.30324397 19.08994484 46.23557427 21.8125 48.5625 C22.47894531 49.14128906 23.14539063 49.72007813 23.83203125 50.31640625 C28.93045158 54.27572005 32.55309906 55.4346609 39.00317383 55.34057617 C39.79394318 55.34101425 40.58471252 55.34145233 41.39944458 55.34190369 C44.00222832 55.33982069 46.60436062 55.31651314 49.20703125 55.29296875 C51.01592151 55.28737105 52.82481633 55.28310177 54.63371277 55.28010559 C59.38655227 55.26867053 64.13911521 55.23921488 68.8918457 55.20599365 C73.74491637 55.17526389 78.59803188 55.16159404 83.45117188 55.14648438 C92.96756919 55.1143439 102.48376157 55.06316373 112 55 C113.05127928 58.38391578 113.04087598 61.33203425 112.87890625 64.859375 C112.83056641 65.97441406 112.78222656 67.08945313 112.73242188 68.23828125 C112.67634766 69.39714844 112.62027344 70.55601563 112.5625 71.75 C112.51029297 72.92433594 112.45808594 74.09867187 112.40429688 75.30859375 C112.27473776 78.20600664 112.13977553 81.10306493 112 84 C110.97935959 83.99777939 109.95871918 83.99555878 108.90715027 83.99327087 C99.29844404 83.97301765 89.68974212 83.95801731 80.0810194 83.94818783 C75.14083658 83.94296456 70.20067097 83.93587696 65.26049805 83.92456055 C60.49484907 83.91371198 55.72921666 83.90771896 50.96355629 83.90512276 C49.14345349 83.90327207 47.32335161 83.89965827 45.50325584 83.89426994 C42.95812378 83.88703342 40.41306058 83.88601017 37.86791992 83.88647461 C36.73395782 83.8810817 36.73395782 83.8810817 35.5770874 83.87557983 C32.44271375 83.8817876 29.99731423 84.00089526 27 85 C25.25146078 86.72517524 25.25146078 86.72517524 23.5625 88.8125 C21.62032666 91.11265868 19.7217084 93.27115592 17.5625 95.375 C15.76896376 96.86455501 15.76896376 96.86455501 16 99 C18.72012474 101.31529012 21.5561284 103.45033543 24.3984375 105.61328125 C28.11975277 109.02728069 28.90371771 111.59096164 29.24723816 116.61819458 C29.25602335 118.03335969 29.25388322 119.44861962 29.24291992 120.86376953 C29.24481827 121.63996643 29.24671661 122.41616333 29.24867249 123.21588135 C29.25236563 125.77162907 29.2416982 128.3270902 29.23046875 130.8828125 C29.22927616 132.66209886 29.22882396 134.44138586 29.2290802 136.22067261 C29.22751794 139.9445186 29.21924678 143.66826811 29.20581055 147.39208984 C29.18879642 152.16827036 29.18499708 156.94434517 29.18575573 161.72055244 C29.18548403 165.39221203 29.18000326 169.06384845 29.17275429 172.73550034 C29.16957006 174.49698588 29.16760078 176.25847405 29.16686058 178.01996231 C29.16469583 180.47836039 29.15594933 182.93664564 29.14526367 185.39501953 C29.14571686 186.12443756 29.14617004 186.85385559 29.14663696 187.6053772 C29.12706994 190.67936264 28.98013587 193.05959238 28 196 C26.328125 197.61328125 26.328125 197.61328125 24.25 199.3125 C20.70348738 202.31534046 17.90676445 205.38618473 15 209 C13.35570171 210.68873879 11.68615782 212.35305515 10 214 C8.56115842 215.43615717 7.12373515 216.87373626 5.6875 218.3125 C4.45833333 219.54166667 3.22916667 220.77083333 2 222 C-1.57846864 220.77292376 -3.67035593 219.67235646 -6 216.6875 C-8.51204439 213.59037185 -11.14244649 210.79109877 -14 208 C-14.71671875 207.27296875 -15.4334375 206.5459375 -16.171875 205.796875 C-16.96078125 204.99765625 -17.7496875 204.1984375 -18.5625 203.375 C-19.30628906 202.61960938 -20.05007812 201.86421875 -20.81640625 201.0859375 C-22.88074707 198.96217322 -22.88074707 198.96217322 -25.21484375 197.6640625 C-28.53238948 194.57155816 -27.97230568 189.61412048 -28.1673584 185.28883362 C-28.19122337 183.94727095 -28.21005317 182.60561198 -28.22460938 181.26391602 C-28.24169449 180.15512085 -28.24169449 180.15512085 -28.25912476 179.02392578 C-28.36910437 171.35426565 -28.41705721 163.68370853 -28.45996094 156.01342773 C-28.48227905 152.38078885 -28.52413152 148.74917036 -28.58300781 145.11694336 C-28.65422812 140.71264406 -28.69080837 136.30930829 -28.70307922 131.90446281 C-28.71344727 130.23351201 -28.7357942 128.56258854 -28.77067566 126.89196968 C-29.06123906 112.22602665 -29.06123906 112.22602665 -24.70117188 107.13256836 C-22.89050293 105.4808197 -22.89050293 105.4808197 -21 104 C-20.33713989 103.40945328 -19.67427979 102.81890656 -18.99133301 102.21046448 C-17.36276378 100.76627009 -15.68618942 99.37648116 -14 98 C-14.680625 97.34 -15.36125 96.68 -16.0625 96 C-17.7187919 94.37178084 -19.21777118 92.73057147 -20.6796875 90.921875 C-21.25976562 90.20515625 -21.83984375 89.4884375 -22.4375 88.75 C-22.97246094 88.06421875 -23.50742188 87.3784375 -24.05859375 86.671875 C-28.28426168 83.03286921 -34.60827577 83.85977924 -39.93310547 83.88647461 C-40.7045137 83.88632858 -41.47592194 83.88618256 -42.27070618 83.8860321 C-44.80289591 83.88672492 -47.33501072 83.89448759 -49.8671875 83.90234375 C-51.6298112 83.90421017 -53.39243541 83.90563302 -55.15505981 83.90663147 C-59.78118334 83.91043897 -64.40727518 83.92025411 -69.03338623 83.93133545 C-73.75923229 83.94158762 -78.48508351 83.94613723 -83.2109375 83.95117188 C-92.47397221 83.96187802 -101.73698346 83.97893314 -111 84 C-111.02465881 80.03069011 -111.04284023 76.06140966 -111.05493164 72.09204102 C-111.05997057 70.74079614 -111.06680177 69.38955674 -111.07543945 68.03833008 C-111.08752419 66.09979566 -111.09269828 64.161222 -111.09765625 62.22265625 C-111.10289307 61.05484619 -111.10812988 59.88703613 -111.11352539 58.68383789 C-111 56 -111 56 -110 55 C-107.53107391 54.92090888 -105.0906035 54.90623877 -102.62207031 54.93408203 C-101.8496701 54.93875488 -101.0772699 54.94342773 -100.28146362 54.94824219 C-98.59810252 54.95877193 -96.91475381 54.97144334 -95.23142242 54.98596573 C-92.56677538 55.00790595 -89.90219864 55.02203888 -87.23748779 55.03366089 C-79.65887785 55.06733001 -72.08038382 55.10881104 -64.50195312 55.17138672 C-59.87130783 55.20906096 -55.24078399 55.23206769 -50.61000824 55.24569321 C-48.84455742 55.25374626 -47.07912285 55.26735347 -45.31375885 55.28662491 C-42.84085694 55.31313779 -40.36853434 55.32100035 -37.89550781 55.32470703 C-37.16699615 55.3370639 -36.4384845 55.34942078 -35.68789673 55.3621521 C-28.49243555 55.33374573 -24.84947749 52.07945605 -19.6875 47.4375 C-18.36298828 46.25994141 -18.36298828 46.25994141 -17.01171875 45.05859375 C-14.76702761 43.24132186 -14.76702761 43.24132186 -15 41 C-16.22030283 39.5951305 -16.22030283 39.5951305 -17.84375 38.1796875 C-18.43027344 37.64472656 -19.01679687 37.10976563 -19.62109375 36.55859375 C-20.24113281 36.00300781 -20.86117187 35.44742188 -21.5 34.875 C-22.12003906 34.31167969 -22.74007812 33.74835937 -23.37890625 33.16796875 C-24.9148721 31.77378436 -26.45688127 30.38626325 -28 29 C-25.93002656 25.18619041 -23.72697766 22.62677222 -20.4375 19.8125 C-15.0530028 15.09712891 -10.02082033 10.09676551 -5 5 C-3.33449843 3.33216905 -1.66814224 1.66518978 0 0 Z " fill="#022642" transform="translate(118,13)"/>
<path d="M0 0 C0.33 0.66 0.66 1.32 1 2 C1.99 2 2.98 2 4 2 C4.33 3.32 4.66 4.64 5 6 C5.66 6 6.32 6 7 6 C7 6.66 7 7.32 7 8 C7.66 8 8.32 8 9 8 C9 8.66 9 9.32 9 10 C9.66 10 10.32 10 11 10 C11 10.66 11 11.32 11 12 C11.66 12 12.32 12 13 12 C13.04668124 25.91650947 13.08183691 39.83300684 13.10362434 53.74957848 C13.11407912 60.21100955 13.12826915 66.67238818 13.15087891 73.13378906 C13.17254697 79.36478824 13.18455585 85.59573685 13.18975449 91.82677078 C13.19346112 94.20871401 13.20069882 96.59065434 13.21146011 98.97257614 C13.22589478 102.29867369 13.22798131 105.62455997 13.22705078 108.95068359 C13.23424133 109.94402206 13.24143188 110.93736053 13.24884033 111.96080017 C13.246091 112.86386398 13.24334167 113.7669278 13.24050903 114.69735718 C13.24235262 115.48456839 13.24419621 116.27177959 13.24609566 117.08284569 C13 119 13 119 11 121 C6.97924132 118.81730243 4.18489364 116.26405036 1 113 C-0.85274887 111.12359902 -2.70694207 109.24862317 -4.5625 107.375 C-5.03107422 106.89804688 -5.49964844 106.42109375 -5.98242188 105.9296875 C-7.99227353 103.90578094 -9.83816493 102.09937728 -12.27734375 100.6015625 C-15.54366883 97.56484304 -14.97586502 92.53519224 -15.1673584 88.28883362 C-15.19122337 86.94727095 -15.21005317 85.60561198 -15.22460938 84.26391602 C-15.24169449 83.15512085 -15.24169449 83.15512085 -15.25912476 82.02392578 C-15.36910437 74.35426565 -15.41705721 66.68370853 -15.45996094 59.01342773 C-15.48227905 55.38078885 -15.52413152 51.74917036 -15.58300781 48.11694336 C-15.65422812 43.71264406 -15.69080837 39.30930829 -15.70307922 34.90446281 C-15.71344727 33.23351201 -15.7357942 31.56258854 -15.77067566 29.89196968 C-16.06126758 15.22458679 -16.06126758 15.22458679 -11.60717773 10.05834961 C-9.74363708 8.36485291 -9.74363708 8.36485291 -8 7 C-7.19691406 6.236875 -6.39382812 5.47375 -5.56640625 4.6875 C-4.57447266 3.8521875 -4.57447266 3.8521875 -3.5625 3 C-2.88316406 2.4225 -2.20382813 1.845 -1.50390625 1.25 C-1.00761719 0.8375 -0.51132813 0.425 0 0 Z " fill="#860939" transform="translate(105,110)"/>
<path d="M0 0 C5.04698431 0.45075555 7.57485184 1.80149704 11.3125 5.1875 C12.17488281 5.94417969 13.03726563 6.70085937 13.92578125 7.48046875 C17.75723015 12.1344886 17.14609158 17.99434115 17.12939453 23.79370117 C17.13114685 24.55053696 17.13289917 25.30737274 17.13470459 26.08714294 C17.13908267 28.57244198 17.1362003 31.05766907 17.1328125 33.54296875 C17.13348649 35.27598586 17.13445731 37.00900287 17.13571167 38.74201965 C17.13718298 42.36570134 17.13505152 45.98935831 17.13037109 49.61303711 C17.12466134 54.26026713 17.12796426 58.90743955 17.13394356 63.55466747 C17.13755356 67.12938371 17.13640878 70.70408623 17.13381577 74.27880287 C17.13314838 75.99284179 17.13396837 77.70688195 17.13629532 79.42091942 C17.13883041 81.81214077 17.13496969 84.20326808 17.12939453 86.59448242 C17.13141876 87.30362793 17.13344299 88.01277344 17.13552856 88.7434082 C17.12239877 91.77815028 16.96815082 94.09554754 16 97 C14.328125 98.61328125 14.328125 98.61328125 12.25 100.3125 C8.70348738 103.31534046 5.90676445 106.38618473 3 110 C1.35570171 111.68873879 -0.31384218 113.35305515 -2 115 C-3.43884158 116.43615717 -4.87626485 117.87373626 -6.3125 119.3125 C-7.54166667 120.54166667 -8.77083333 121.77083333 -10 123 C-12.4375 122.1875 -12.4375 122.1875 -15 121 C-15.33 120.01 -15.66 119.02 -16 118 C-14.515 117.505 -14.515 117.505 -13 117 C-12.67 83.01 -12.34 49.02 -12 14 C-11.67 14 -11.34 14 -11 14 C-11 47 -11 80 -11 114 C-10.01 113.505 -10.01 113.505 -9 113 C-9.33 112.67 -9.66 112.34 -10 112 C-10.09533653 108.8949275 -10.12551126 105.81213542 -10.11352539 102.70678711 C-10.11367142 101.73128403 -10.11381744 100.75578094 -10.1139679 99.75071716 C-10.11326833 96.50957047 -10.10547391 93.26848046 -10.09765625 90.02734375 C-10.09579222 87.78674857 -10.09436825 85.54615298 -10.09336853 83.30555725 C-10.08954213 77.3954049 -10.0797108 71.48527695 -10.06866455 65.57513428 C-10.05845306 59.54944183 -10.05387147 53.52374547 -10.04882812 47.49804688 C-10.03808864 35.66535384 -10.02101076 23.83267894 -10 12 C-8.68 12 -7.36 12 -6 12 C-6 11.34 -6 10.68 -6 10 C-5.34 10 -4.68 10 -4 10 C-4 9.34 -4 8.68 -4 8 C-3.34 8 -2.68 8 -2 8 C-2 8.66 -2 9.32 -2 10 C-1.34 10 -0.68 10 0 10 C-0.66 9.01 -1.32 8.02 -2 7 C-2.125 4.3125 -2.125 4.3125 -2 2 C-1.34 2 -0.68 2 0 2 C0 1.34 0 0.68 0 0 Z " fill="#092E49" transform="translate(130,112)"/>
<path d="M0 0 C0.99 0.495 0.99 0.495 2 1 C1.67 1.99 1.34 2.98 1 4 C0.01 3.505 0.01 3.505 -1 3 C-1 3.66 -1 4.32 -1 5 C-0.01 5.495 -0.01 5.495 1 6 C0.01 6 -0.98 6 -2 6 C-2 14.91 -2 23.82 -2 33 C-30.05 33 -58.1 33 -87 33 C-87 5 -87 5 -86 4 C-83.53107391 3.92090888 -81.0906035 3.90623877 -78.62207031 3.93408203 C-77.8496701 3.93875488 -77.0772699 3.94342773 -76.28146362 3.94824219 C-74.59810252 3.95877193 -72.91475381 3.97144334 -71.23142242 3.98596573 C-68.56677538 4.00790595 -65.90219864 4.02203888 -63.23748779 4.03366089 C-55.65887785 4.06733001 -48.08038382 4.10881104 -40.50195312 4.17138672 C-35.87130783 4.20906096 -31.24078399 4.23206769 -26.61000824 4.24569321 C-24.84455742 4.25374626 -23.07912285 4.26735347 -21.31375885 4.28662491 C-18.84085694 4.31313779 -16.36853434 4.32100035 -13.89550781 4.32470703 C-12.80274033 4.34324234 -12.80274033 4.34324234 -11.68789673 4.3621521 C-6.86677458 4.34311919 -3.46757594 3.46757594 0 0 Z " fill="#830032" transform="translate(94,64)"/>
<path d="M0 0 C1.18571594 -0.00021904 1.18571594 -0.00021904 2.39538574 -0.0004425 C5.00881695 0.0002543 7.62217694 0.00803584 10.2355957 0.01586914 C12.04734763 0.01773415 13.85910005 0.01915766 15.67085266 0.02015686 C20.44004711 0.02397554 25.20921113 0.03380031 29.97839355 0.04486084 C34.84472237 0.0550889 39.71105611 0.05965747 44.57739258 0.06469727 C54.12623408 0.07542313 63.67505299 0.09249179 73.22387695 0.11352539 C74.27515623 3.49744118 74.26475293 6.44555964 74.1027832 9.97290039 C74.05444336 11.08793945 74.00610352 12.20297852 73.95629883 13.35180664 C73.90022461 14.51067383 73.84415039 15.66954102 73.78637695 16.86352539 C73.73416992 18.03786133 73.68196289 19.21219727 73.62817383 20.42211914 C73.49861471 23.31953203 73.36365249 26.21659032 73.22387695 29.11352539 C65.96300774 29.13711023 58.7021473 29.15466779 51.44124699 29.16533756 C48.06660619 29.17046873 44.69201241 29.1779631 41.31738281 29.18896484 C23.91737588 29.24418234 6.60621726 28.93023172 -10.77612305 28.11352539 C-10.77612305 19.20352539 -10.77612305 10.29352539 -10.77612305 1.11352539 C-7.13055296 -0.10166464 -3.79421083 -0.01827055 0 0 Z " fill="#12334E" transform="translate(156.776123046875,67.886474609375)"/>
<path d="M0 0 C4.92066611 4.11729205 9.51803236 8.41160041 14 13 C14.66 13.66 15.32 14.32 16 15 C15.34 15 14.68 15 14 15 C14 23.91 14 32.82 14 42 C14.66 42.33 15.32 42.66 16 43 C14.515 43.495 14.515 43.495 13 44 C11.28385151 45.6553521 11.28385151 45.6553521 9.625 47.6875 C8.70847656 48.76064453 8.70847656 48.76064453 7.7734375 49.85546875 C6.67941387 51.17841803 5.59830456 52.51232279 4.5390625 53.86328125 C3.41626507 55.28889374 2.21395352 56.65116276 1 58 C0.01 58 -0.98 58 -2 58 C-2 58.66 -2 59.32 -2 60 C-2.66 60 -3.32 60 -4 60 C-4 60.66 -4 61.32 -4 62 C-4.66 62 -5.32 62 -6 62 C-6 62.66 -6 63.32 -6 64 C-6.66 64 -7.32 64 -8 64 C-8 64.66 -8 65.32 -8 66 C-8.66 66 -9.32 66 -10 66 C-10 66.66 -10 67.32 -10 68 C-10.99 68 -11.98 68 -13 68 C-13 50.18 -13 32.36 -13 14 C-12.01 14 -11.02 14 -10 14 C-10 12.68 -10 11.36 -10 10 C-9.34 10 -8.68 10 -8 10 C-7.67 8.68 -7.34 7.36 -7 6 C-6.01 6 -5.02 6 -4 6 C-4 5.34 -4 4.68 -4 4 C-3.34 4 -2.68 4 -2 4 C-2 3.34 -2 2.68 -2 2 C-1.34 2 -0.68 2 0 2 C0 1.34 0 0.68 0 0 Z " fill="#830133" transform="translate(132,54)"/>
<path d="M0 0 C3.04332765 1.3584202 5.12309151 2.88463024 7.453125 5.2578125 C8.38125 6.19560547 8.38125 6.19560547 9.328125 7.15234375 C9.96234375 7.80332031 10.5965625 8.45429688 11.25 9.125 C12.22453125 10.11306641 12.22453125 10.11306641 13.21875 11.12109375 C14.81711727 12.74296643 16.41061897 14.3693281 18 16 C14.90279155 16.87840996 13.09354597 16.99435406 10 16 C10 15.34 10 14.68 10 14 C10.66 14 11.32 14 12 14 C9.37409557 10.30428266 7.45427785 8.17217838 3 7 C2.01 7.495 2.01 7.495 1 8 C0.67 22.85 0.34 37.7 0 53 C-1.32 53 -2.64 53 -4 53 C-4 52.34 -4 51.68 -4 51 C-4.66 51 -5.32 51 -6 51 C-6 50.34 -6 49.68 -6 49 C-6.66 49 -7.32 49 -8 49 C-8 47.68 -8 46.36 -8 45 C-8.66 45 -9.32 45 -10 45 C-10 44.34 -10 43.68 -10 43 C-10.88316895 42.84349976 -10.88316895 42.84349976 -11.78417969 42.68383789 C-14.34067685 41.89486163 -15.52660205 40.89592583 -17.453125 39.05859375 C-18.071875 38.47529297 -18.690625 37.89199219 -19.328125 37.29101562 C-19.96234375 36.67935547 -20.5965625 36.06769531 -21.25 35.4375 C-21.8996875 34.82197266 -22.549375 34.20644531 -23.21875 33.57226562 C-24.81880287 32.05456842 -26.41213644 30.53042885 -28 29 C-25.93002656 25.18619041 -23.72697766 22.62677222 -20.4375 19.8125 C-15.0530028 15.09712891 -10.02082033 10.09676551 -5 5 C-3.33449843 3.33216905 -1.66814224 1.66518978 0 0 Z " fill="#840233" transform="translate(118,13)"/>
<path d="M0 0 C0.33 0.66 0.66 1.32 1 2 C1.78375 2.144375 2.5675 2.28875 3.375 2.4375 C6.26386705 3.05654294 7.23647793 3.67957622 9 6 C9 6.66 9 7.32 9 8 C8.34 8 7.68 8 7 8 C7 8.66 7 9.32 7 10 C7.53625 9.773125 8.0725 9.54625 8.625 9.3125 C12.28820365 8.83049952 13.88465321 10.022953 17 12 C24.55632582 18.66897747 24.55632582 18.66897747 26 23 C24.58653438 24.44064765 23.16908789 25.87739015 21.75 27.3125 C20.96109375 28.11300781 20.1721875 28.91351563 19.359375 29.73828125 C13.87046632 35 13.87046632 35 11 35 C11 35.66 11 36.32 11 37 C10.34 37 9.68 37 9 37 C9 37.66 9 38.32 9 39 C8.34 39 7.68 39 7 39 C7 39.66 7 40.32 7 41 C6.01 41 5.02 41 4 41 C3.67 42.32 3.34 43.64 3 45 C2.34 45 1.68 45 1 45 C1 45.66 1 46.32 1 47 C0.01 47 -0.98 47 -2 47 C-2.0505963 40.62796407 -2.08568957 34.2559797 -2.10986328 27.88378906 C-2.11993789 25.71482406 -2.13359798 23.54587269 -2.15087891 21.37695312 C-2.17506323 18.26428874 -2.18646832 15.15180349 -2.1953125 12.0390625 C-2.20563507 11.065065 -2.21595764 10.0910675 -2.22659302 9.08755493 C-2.22674408 8.18677216 -2.22689514 7.28598938 -2.22705078 6.35791016 C-2.231492 5.56293121 -2.23593323 4.76795227 -2.24050903 3.94888306 C-2 2 -2 2 0 0 Z " fill="#052642" transform="translate(121,19)"/>
<path d="M0 0 C0.99 0.495 0.99 0.495 2 1 C1.67 1.99 1.34 2.98 1 4 C0.01 3.505 0.01 3.505 -1 3 C-1 3.66 -1 4.32 -1 5 C-0.01 5.495 -0.01 5.495 1 6 C0.01 6 -0.98 6 -2 6 C-2 14.91 -2 23.82 -2 33 C-2.66 32.67 -3.32 32.34 -4 32 C-4 23.42 -4 14.84 -4 6 C-31.06 6 -58.12 6 -86 6 C-86 14.58 -86 23.16 -86 32 C-60.26 32 -34.52 32 -8 32 C-8 32.33 -8 32.66 -8 33 C-34.07 33 -60.14 33 -87 33 C-87 5 -87 5 -86 4 C-83.53107391 3.92090888 -81.0906035 3.90623877 -78.62207031 3.93408203 C-77.8496701 3.93875488 -77.0772699 3.94342773 -76.28146362 3.94824219 C-74.59810252 3.95877193 -72.91475381 3.97144334 -71.23142242 3.98596573 C-68.56677538 4.00790595 -65.90219864 4.02203888 -63.23748779 4.03366089 C-55.65887785 4.06733001 -48.08038382 4.10881104 -40.50195312 4.17138672 C-35.87130783 4.20906096 -31.24078399 4.23206769 -26.61000824 4.24569321 C-24.84455742 4.25374626 -23.07912285 4.26735347 -21.31375885 4.28662491 C-18.84085694 4.31313779 -16.36853434 4.32100035 -13.89550781 4.32470703 C-12.80274033 4.34324234 -12.80274033 4.34324234 -11.68789673 4.3621521 C-6.86677458 4.34311919 -3.46757594 3.46757594 0 0 Z " fill="#A2909A" transform="translate(94,64)"/>
<path d="M0 0 C0.33 0 0.66 0 1 0 C1 16.5 1 33 1 50 C1.99 50 2.98 50 4 50 C4 50.66 4 51.32 4 52 C3.01 52 2.02 52 1 52 C1 69.82 1 87.64 1 106 C1.99 106 2.98 106 4 106 C4 105.34 4 104.68 4 104 C4.66 104 5.32 104 6 104 C6 103.34 6 102.68 6 102 C6.66 102 7.32 102 8 102 C8 101.34 8 100.68 8 100 C8.66 100 9.32 100 10 100 C10.66 101.98 11.32 103.96 12 106 C11.34 106 10.68 106 10 106 C10 105.34 10 104.68 10 104 C9.34 104 8.68 104 8 104 C8 104.66 8 105.32 8 106 C7.34 106 6.68 106 6 106 C6 106.66 6 107.32 6 108 C4.68 108 3.36 108 2 108 C2 141 2 174 2 208 C2.66 208.33 3.32 208.66 4 209 C3.01 209.33 2.02 209.66 1 210 C0.82770432 194.54172594 0.66128031 179.08339296 0.5 163.625 C0.48812275 162.48692398 0.4762455 161.34884796 0.46400833 160.17628479 C0.08949895 124.11582188 -0.15312637 88.06243716 0 52 C-0.66 52 -1.32 52 -2 52 C-2 51.34 -2 50.68 -2 50 C-1.34 50 -0.68 50 0 50 C0 33.5 0 17 0 0 Z " fill="#141E3B" transform="translate(118,16)"/>
<path d="M0 0 C0.33 0 0.66 0 1 0 C1 33.99 1 67.98 1 103 C1.99 103 2.98 103 4 103 C4.33 102.01 4.66 101.02 5 100 C7.0625 98.8125 7.0625 98.8125 9 98 C9 102 9 102 7.46875 103.921875 C6.8190625 104.52515625 6.169375 105.1284375 5.5 105.75 C4.8503125 106.36359375 4.200625 106.9771875 3.53125 107.609375 C2.77328125 108.29773438 2.77328125 108.29773438 2 109 C-0.4375 108.1875 -0.4375 108.1875 -3 107 C-3.33 106.01 -3.66 105.02 -4 104 C-2.515 103.505 -2.515 103.505 -1 103 C-0.67 69.01 -0.34 35.02 0 0 Z " fill="#3D1739" transform="translate(118,126)"/>
<path d="M0 0 C4.92066611 4.11729205 9.51803236 8.41160041 14 13 C14.66 13.66 15.32 14.32 16 15 C14.68 15.33 13.36 15.66 12 16 C12 16.66 12 17.32 12 18 C10.02 18 8.04 18 6 18 C6 17.01 6 16.02 6 15 C5.36485174 12.65789079 4.7013284 10.32315031 4 8 C3.0925 8.37125 2.185 8.7425 1.25 9.125 C-2 10 -2 10 -4.375 9.125 C-4.91125 8.75375 -5.4475 8.3825 -6 8 C-6 8.66 -6 9.32 -6 10 C-6.66 10 -7.32 10 -8 10 C-7.67 8.68 -7.34 7.36 -7 6 C-6.01 6 -5.02 6 -4 6 C-4 5.34 -4 4.68 -4 4 C-3.34 4 -2.68 4 -2 4 C-2 3.34 -2 2.68 -2 2 C-1.34 2 -0.68 2 0 2 C0 1.34 0 0.68 0 0 Z " fill="#720D39" transform="translate(132,54)"/>
<path d="M0 0 C0.66 1.32 1.32 2.64 2 4 C1.01 4.33 0.02 4.66 -1 5 C-2.20882096 7.00016466 -2.20882096 7.00016466 -3 9 C-3.66 8.67 -4.32 8.34 -5 8 C-5.16947579 9.41633336 -5.33545507 10.83308533 -5.5 12.25 C-5.5928125 13.03890625 -5.685625 13.8278125 -5.78125 14.640625 C-6.06154619 17.26890397 -6.06154619 17.26890397 -6 21 C-9.68754757 20.50168276 -11.60490662 19.89932357 -14 17 C-14.99 17.99 -15.98 18.98 -17 20 C-16.360625 20.226875 -15.72125 20.45375 -15.0625 20.6875 C-13 22 -13 22 -12.25 24.625 C-12.1675 25.40875 -12.085 26.1925 -12 27 C-15.7952131 25.50902342 -17.61042731 23.24299151 -20 20 C-17.12854876 16.05175455 -13.85721298 13.05906898 -10.171875 9.9140625 C-6.61395174 6.77848265 -3.31216096 3.39144141 0 0 Z " fill="#8D1E46" transform="translate(110,21)"/>
<path d="M0 0 C0.33 0 0.66 0 1 0 C1 16.5 1 33 1 50 C1.99 50 2.98 50 4 50 C4 50.66 4 51.32 4 52 C3.01 52 2.02 52 1 52 C1 71.14 1 90.28 1 110 C0.67 110 0.34 110 0 110 C0 90.86 0 71.72 0 52 C-0.66 52 -1.32 52 -2 52 C-2 51.34 -2 50.68 -2 50 C-1.34 50 -0.68 50 0 50 C0 33.5 0 17 0 0 Z " fill="#411339" transform="translate(118,16)"/>
<path d="M0 0 C4.13621084 3.3810038 7.81316569 6.66590534 11 11 C4.84965831 18.48291572 4.84965831 18.48291572 1 21 C-0.00836047 17.67241043 -0.03768972 16.1152862 1.0625 12.75 C2.25598484 7.97606063 1.36610984 4.63426492 0 0 Z " fill="#394F67" transform="translate(136,30)"/>
<path d="M0 0 C3.10253054 1.19260957 5.14403018 2.90595667 7.453125 5.2578125 C8.071875 5.88300781 8.690625 6.50820313 9.328125 7.15234375 C9.96234375 7.80332031 10.5965625 8.45429688 11.25 9.125 C11.8996875 9.78371094 12.549375 10.44242188 13.21875 11.12109375 C14.81711727 12.74296643 16.41061897 14.3693281 18 16 C14.90279155 16.87840996 13.09354597 16.99435406 10 16 C10 15.34 10 14.68 10 14 C10.66 14 11.32 14 12 14 C9.37409557 10.30428266 7.45427785 8.17217838 3 7 C2.01 7.495 2.01 7.495 1 8 C0.67 7.01 0.34 6.02 0 5 C-0.66 5 -1.32 5 -2 5 C-1.67 6.98 -1.34 8.96 -1 11 C-1.61875 10.525625 -2.2375 10.05125 -2.875 9.5625 C-4.90705546 7.97582559 -4.90705546 7.97582559 -7 7 C-2.25 1.125 -2.25 1.125 0 0 Z " fill="#53656C" transform="translate(118,13)"/>
<path d="M0 0 C5.42443307 0.96239941 5.42443307 0.96239941 8 2 C9.4375 4.5 9.4375 4.5 10 7 C10.33 7.66 10.66 8.32 11 9 C10.34 9 9.68 9 9 9 C9 9.66 9 10.32 9 11 C8.01 11.33 7.02 11.66 6 12 C3.95703125 10.56640625 3.95703125 10.56640625 1.8125 8.5625 C1.09707031 7.90378906 0.38164063 7.24507813 -0.35546875 6.56640625 C-0.89816406 6.04949219 -1.44085938 5.53257813 -2 5 C-1.34 3.35 -0.68 1.7 0 0 Z " fill="#1C3651" transform="translate(98,98)"/>
<path d="M0 0 C1.36125 0.1546875 1.36125 0.1546875 2.75 0.3125 C-2.58333333 5.64583333 -7.91666667 10.97916667 -13.25 16.3125 C-12.72731534 13.54973823 -12.14130413 10.9864124 -11.25 8.3125 C-11.91 8.3125 -12.57 8.3125 -13.25 8.3125 C-13.25 7.6525 -13.25 6.9925 -13.25 6.3125 C-13.91 6.3125 -14.57 6.3125 -15.25 6.3125 C-15.25 4.9925 -15.25 3.6725 -15.25 2.3125 C-14.26 2.3125 -13.27 2.3125 -12.25 2.3125 C-12.25 2.9725 -12.25 3.6325 -12.25 4.3125 C-10.6 4.6425 -8.95 4.9725 -7.25 5.3125 C-6.71375 4.4875 -6.1775 3.6625 -5.625 2.8125 C-3.25 0.3125 -3.25 0.3125 0 0 Z " fill="#8C2F51" transform="translate(145.25,95.6875)"/>
<path d="M0 0 C4.18423892 3.50897269 8.19588166 7.08060535 12 11 C11.67 11.99 11.34 12.98 11 14 C10.67 13.34 10.34 12.68 10 12 C7.97536745 11.34786708 7.97536745 11.34786708 6 11 C5.67 12.32 5.34 13.64 5 15 C3.68 14.67 2.36 14.34 1 14 C1 11 1 11 1.625 8.125 C2.03634158 4.69715351 1.52235687 3.04471373 0 0 Z " fill="#264359" transform="translate(135,113)"/>
<path d="M0 0 C1.75390625 1.14453125 1.75390625 1.14453125 3.5625 2.8125 C4.46162109 3.62654297 4.46162109 3.62654297 5.37890625 4.45703125 C6.60209834 5.62127433 7.80591859 6.80591859 9 8 C7.68 8.33 6.36 8.66 5 9 C5 9.66 5 10.32 5 11 C3.02 11 1.04 11 -1 11 C-1 10.01 -1 9.02 -1 8 C-1.63514826 5.65789079 -2.2986716 3.32315031 -3 1 C-2.01 0.67 -1.02 0.34 0 0 Z " fill="#933559" transform="translate(139,61)"/>
<path d="M0 0 C0.66 0.33 1.32 0.66 2 1 C0.34908222 5.29238623 -2.73754566 7.8793915 -6 11 C-8.4375 10.1875 -8.4375 10.1875 -11 9 C-11.33 8.01 -11.66 7.02 -12 6 C-11.01 5.67 -10.02 5.34 -9 5 C-8.34 4.01 -7.68 3.02 -7 2 C-7 2.99 -7 3.98 -7 5 C-6.01 5 -5.02 5 -4 5 C-3.67 4.01 -3.34 3.02 -3 2 C-2.01 1.34 -1.02 0.68 0 0 Z " fill="#665C73" transform="translate(126,224)"/>
<path d="M0 0 C2.9375 0.75 2.9375 0.75 6 2 C6.875 4.125 6.875 4.125 7 6 C7.99 6 8.98 6 10 6 C10.33 6.99 10.66 7.98 11 9 C13.97 9.495 13.97 9.495 17 10 C16.67 11.98 16.34 13.96 16 16 C9.37184273 11.6714075 4.39598934 6.59398401 0 0 Z " fill="#92425E" transform="translate(98,214)"/>
<path d="M0 0 C2.64 0 5.28 0 8 0 C8 0.66 8 1.32 8 2 C8.99 2.33 9.98 2.66 11 3 C11 4.32 11 5.64 11 7 C9.234375 7.7109375 9.234375 7.7109375 7 8 C5.078125 6.6015625 5.078125 6.6015625 3.25 4.625 C2.63640625 3.97789063 2.0228125 3.33078125 1.390625 2.6640625 C0 1 0 1 0 0 Z " fill="#94294F" transform="translate(98,48)"/>
<path d="M0 0 C0.99 0 1.98 0 3 0 C3 1.98 3 3.96 3 6 C2.34 6 1.68 6 1 6 C1 6.66 1 7.32 1 8 C-1.64 8 -4.28 8 -7 8 C-6.02133662 6.85373678 -5.04205413 5.70800212 -4.0625 4.5625 C-3.51722656 3.92441406 -2.97195312 3.28632812 -2.41015625 2.62890625 C-1.63204305 1.73008851 -0.84063472 0.84063472 0 0 Z " fill="#2F445B" transform="translate(103,56)"/>
<path d="M0 0 C1.65 0.33 3.3 0.66 5 1 C5.33 1.99 5.66 2.98 6 4 C4 7 4 7 1.4375 7.75 C0.633125 7.8325 -0.17125 7.915 -1 8 C-2 7 -2 7 -2.0625 4.4375 C-2.041875 3.633125 -2.02125 2.82875 -2 2 C-1.34 2 -0.68 2 0 2 C0 1.34 0 0.68 0 0 Z " fill="#102C48" transform="translate(130,112)"/>
<path d="M0 0 C0.66 0.33 1.32 0.66 2 1 C1.67 1.99 1.34 2.98 1 4 C0.34 3.67 -0.32 3.34 -1 3 C-1 3.66 -1 4.32 -1 5 C-0.34 5.33 0.32 5.66 1 6 C-3.95484183 7.38489368 -8.74589148 6.89120615 -13.8125 6.5625 C-15.13797852 6.48418945 -15.13797852 6.48418945 -16.49023438 6.40429688 C-18.66050408 6.27525381 -20.83030693 6.13840044 -23 6 C-23 5.67 -23 5.34 -23 5 C-21.24623047 4.94392578 -21.24623047 4.94392578 -19.45703125 4.88671875 C-17.90882325 4.8210372 -16.36064758 4.75459061 -14.8125 4.6875 C-14.04357422 4.66494141 -13.27464844 4.64238281 -12.48242188 4.61914062 C-7.46591768 4.38230996 -3.71872954 3.71872954 0 0 Z " fill="#625463" transform="translate(94,64)"/>
<path d="M0 0 C0.99 0.99 1.98 1.98 3 3 C-3.15034169 10.48291572 -3.15034169 10.48291572 -7 13 C-7.33 11.35 -7.66 9.7 -8 8 C-5.0173094 6.47551369 -2.181798 5.06059933 1 4 C0.67 2.68 0.34 1.36 0 0 Z " fill="#6E7B87" transform="translate(144,38)"/>
<path d="M0 0 C0.66 0 1.32 0 2 0 C2.33 1.32 2.66 2.64 3 4 C3.66 4 4.32 4 5 4 C5 5.32 5 6.64 5 8 C3.68 8 2.36 8 1 8 C1 7.34 1 6.68 1 6 C0.34 6 -0.32 6 -1 6 C-1 5.34 -1 4.68 -1 4 C-1.99 3.67 -2.98 3.34 -4 3 C-2.68 2.67 -1.36 2.34 0 2 C0 1.34 0 0.68 0 0 Z " fill="#720739" transform="translate(107,112)"/>
<path d="M0 0 C0.66 0 1.32 0 2 0 C2.66 1.98 3.32 3.96 4 6 C3.34 6 2.68 6 2 6 C2 5.34 2 4.68 2 4 C1.34 4 0.68 4 0 4 C0 4.66 0 5.32 0 6 C-0.66 6 -1.32 6 -2 6 C-2 6.66 -2 7.32 -2 8 C-3.32 8 -4.64 8 -6 8 C-6 7.34 -6 6.68 -6 6 C-5.34 6 -4.68 6 -4 6 C-4 5.34 -4 4.68 -4 4 C-3.34 4 -2.68 4 -2 4 C-2 3.34 -2 2.68 -2 2 C-1.34 2 -0.68 2 0 2 C0 1.34 0 0.68 0 0 Z " fill="#0C2141" transform="translate(126,116)"/>
<path d="M0 0 C4.13621084 3.3810038 7.81316569 6.66590534 11 11 C5.25 11.125 5.25 11.125 3 10 C3 9.34 3 8.68 3 8 C3.66 8 4.32 8 5 8 C4.175 7.05125 3.35 6.1025 2.5 5.125 C0 2.25 0 2.25 0 0 Z " fill="#84919E" transform="translate(125,19)"/>
<path d="M0 0 C0.66 0.33 1.32 0.66 2 1 C1.01 2.32 0.02 3.64 -1 5 C-0.360625 5.226875 0.27875 5.45375 0.9375 5.6875 C3 7 3 7 3.75 9.625 C3.8325 10.40875 3.915 11.1925 4 12 C0.2047869 10.50902342 -1.61042731 8.24299151 -4 5 C-2.68 3.35 -1.36 1.7 0 0 Z " fill="#C28FA1" transform="translate(94,36)"/>
<path d="M0 0 C0.66 0.33 1.32 0.66 2 1 C2 1.99 2 2.98 2 4 C1.34 4 0.68 4 0 4 C0.33 5.98 0.66 7.96 1 10 C0.38125 9.525625 -0.2375 9.05125 -0.875 8.5625 C-2.90705546 6.97582559 -2.90705546 6.97582559 -5 6 C-3.35 4.02 -1.7 2.04 0 0 Z " fill="#A6516D" transform="translate(116,14)"/>
<path d="M0 0 C0.99 0 1.98 0 3 0 C3 0.66 3 1.32 3 2 C3.66 2 4.32 2 5 2 C5 2.66 5 3.32 5 4 C4.34 4 3.68 4 3 4 C3 4.66 3 5.32 3 6 C2.34 6 1.68 6 1 6 C0.67 6.66 0.34 7.32 0 8 C-1.125 2.25 -1.125 2.25 0 0 Z " fill="#750533" transform="translate(123,112)"/>
<path d="M0 0 C0.804375 0.33 1.60875 0.66 2.4375 1 C4.69681125 2.06059041 4.69681125 2.06059041 6 2 C6.33 2.99 6.66 3.98 7 5 C5.02 5 3.04 5 1 5 C1 4.34 1 3.68 1 3 C-0.98 3.99 -0.98 3.99 -3 5 C-1.125 1.125 -1.125 1.125 0 0 Z " fill="#780731" transform="translate(95,37)"/>
<path d="M0 0 C3.125 -0.1875 3.125 -0.1875 6 0 C3.14723863 2.93200474 0.34920216 5.64315404 -3 8 C-2.45276317 4.62537285 -1.9451 2.91765 0 0 Z " fill="#A35770" transform="translate(142,96)"/>
<path d="M0 0 C2.0625 0.4375 2.0625 0.4375 4 1 C4 1.99 4 2.98 4 4 C2.125 5.0625 2.125 5.0625 0 6 C-0.66 5.67 -1.32 5.34 -2 5 C-1.125 1.125 -1.125 1.125 0 0 Z " fill="#233F52" transform="translate(131,49)"/>
<path d="M0 0 C0.66 1.32 1.32 2.64 2 4 C1.01 4 0.02 4 -1 4 C-1 4.66 -1 5.32 -1 6 C-3.375 7.6875 -3.375 7.6875 -6 9 C-6.66 8.67 -7.32 8.34 -8 8 C-5.36 5.36 -2.72 2.72 0 0 Z " fill="#A8677F" transform="translate(100,114)"/>
<path d="M0 0 C1.32 0 2.64 0 4 0 C3.34 1.98 2.68 3.96 2 6 C0.68 5.67 -0.64 5.34 -2 5 C-1.125 1.125 -1.125 1.125 0 0 Z " fill="#8E224C" transform="translate(98,33)"/>
<path d="M0 0 C0.66 0.33 1.32 0.66 2 1 C2.59355614 3.64860427 2.74209269 6.29197322 3 9 C1.35 7.68 -0.3 6.36 -2 5 C-1.34 3.35 -0.68 1.7 0 0 Z " fill="#57717C" transform="translate(98,98)"/>
<path d="M0 0 C0.66 1.32 1.32 2.64 2 4 C1.195625 4.12375 0.39125 4.2475 -0.4375 4.375 C-1.7059375 4.684375 -1.7059375 4.684375 -3 5 C-3.33 5.66 -3.66 6.32 -4 7 C-3.6875 4.625 -3.6875 4.625 -3 2 C-2.01 1.34 -1.02 0.68 0 0 Z " fill="#893658" transform="translate(105,110)"/>
<path d="M0 0 C1 2 1 2 0.375 4.0625 C-1 6 -1 6 -3.625 6.75 C-4.800625 6.87375 -4.800625 6.87375 -6 7 C-4.02 4.69 -2.04 2.38 0 0 Z " fill="#9E5870" transform="translate(105,26)"/>
<path d="M0 0 C1.32 1.32 2.64 2.64 4 4 C3.67 4.99 3.34 5.98 3 7 C2.67 6.34 2.34 5.68 2 5 C1.01 4.67 0.02 4.34 -1 4 C-0.67 2.68 -0.34 1.36 0 0 Z " fill="#697C88" transform="translate(143,120)"/>
<path d="M0 0 C1.98 0.99 1.98 0.99 4 2 C4 2.66 4 3.32 4 4 C3.34 4 2.68 4 2 4 C2 4.66 2 5.32 2 6 C1.34 6 0.68 6 0 6 C0 4.02 0 2.04 0 0 Z " fill="#750D37" transform="translate(128,108)"/>
<path d="M0 0 C2.31 1.98 4.62 3.96 7 6 C5.68 6.33 4.36 6.66 3 7 C1.25 5.8125 1.25 5.8125 0 4 C0 2.68 0 1.36 0 0 Z " fill="#A45D77" transform="translate(132,54)"/>
</svg>
